<svg xmlns="http://www.w3.org/2000/svg" viewBox="0 0 808.69 180.0" width="808.69" height="180.0"><g transform="translate(24.000 24.000) scale(1.32000)"><path d="M50 4C62 22 86 36 86 62L86 74Q86 92 68 92L32 92Q14 92 14 74L14 62C14 36 38 22 50 4Z" fill="#0B1F3B"/><path d="M50 4C62 22 86 36 86 62L86 74Q86 92 68 92L32 92Q14 92 14 74L14 62C14 36 38 22 50 4Z" fill="#F2A93B" transform="translate(27.06 34.16) scale(0.46)"/></g><path d="M188.0 138.21V48.93000000000001H225.696Q226.998 48.93000000000001 229.19899999999998 49.02300000000001Q231.39999999999998 49.116000000000014 233.136 49.426Q241.134 50.66600000000001 246.24899999999997 54.69600000000001Q251.36399999999998 58.72600000000001 253.78199999999998 64.83300000000001Q256.2 70.94000000000001 256.2 78.44200000000001Q256.2 89.66400000000002 250.62 97.63100000000001Q245.04 105.59800000000001 233.136 107.45800000000001L225.696 107.95400000000001H204.864V138.21ZM238.344 138.21 220.736 101.87800000000001 238.096 98.53 257.44 138.21ZM204.864 92.20600000000002H224.952Q226.254 92.20600000000002 227.80399999999997 92.08200000000001Q229.35399999999998 91.958 230.656 91.58600000000001Q234.066 90.656 235.926 88.45500000000001Q237.786 86.254 238.499 83.55700000000002Q239.212 80.86000000000001 239.212 78.44200000000001Q239.212 76.024 238.499 73.327Q237.786 70.63000000000001 235.926 68.429Q234.066 66.22800000000001 230.656 65.298Q229.35399999999998 64.926 227.80399999999997 64.802Q226.254 64.67800000000001 224.952 64.67800000000001H204.864ZM285.34000000000003 140.07000000000002Q278.148 140.07000000000002 273.15700000000004 137.31100000000004Q268.166 134.55200000000002 265.59299999999996 129.93300000000002Q263.02 125.31400000000001 263.02 119.73400000000001Q263.02 115.084 264.446 111.24000000000001Q265.872 107.39600000000002 269.065 104.45100000000001Q272.258 101.506 277.652 99.522Q281.372 98.15800000000002 286.51800000000003 97.10400000000001Q291.664 96.05000000000001 298.174 95.08900000000001Q304.684 94.12800000000001 312.496 92.95000000000002L306.42 96.298Q306.42 90.346 303.568 87.55600000000001Q300.716 84.766 294.02 84.766Q290.3 84.766 286.27 86.56400000000001Q282.24 88.36200000000001 280.628 92.95000000000002L265.376 88.114Q267.918 79.80600000000001 274.924 74.59800000000001Q281.93 69.39000000000001 294.02 69.39000000000001Q302.886 69.39000000000001 309.76800000000003 72.11800000000001Q316.65 74.846 320.184 81.542Q322.168 85.262 322.54 88.982Q322.91200000000003 92.702 322.91200000000003 97.29V138.21H308.156V124.44600000000001L310.264 127.298Q305.366 134.056 299.693 137.06300000000002Q294.02 140.07000000000002 285.34000000000003 140.07000000000002ZM288.936 126.802Q293.586 126.802 296.779 125.159Q299.972 123.516 301.863 121.40800000000002Q303.754 119.30000000000001 304.436 117.87400000000001Q305.738 115.14600000000002 305.95500000000004 111.519Q306.172 107.89200000000001 306.172 105.47400000000002L311.132 106.71400000000001Q303.63 107.95400000000001 298.98 108.79100000000001Q294.33 109.62800000000001 291.47799999999995 110.31Q288.626 110.992 286.456 111.798Q283.976 112.79 282.457 113.93700000000001Q280.938 115.084 280.225 116.44800000000001Q279.512 117.81200000000001 279.512 119.486Q279.512 121.78 280.659 123.423Q281.806 125.066 283.914 125.934Q286.022 126.802 288.936 126.802ZM335.932 61.95V47.07000000000001H352.796V61.95ZM335.932 138.21V71.25000000000001H352.796V138.21ZM412.688 138.21V106.59Q412.688 104.296 412.44 100.73100000000001Q412.192 97.16600000000001 410.89 93.57000000000002Q409.58799999999997 89.97400000000002 406.643 87.55600000000001Q403.698 85.138 398.304 85.138Q396.13399999999996 85.138 393.654 85.82000000000001Q391.174 86.50200000000001 389.00399999999996 88.45500000000001Q386.83399999999995 90.40800000000002 385.43899999999996 94.19000000000001Q384.044 97.97200000000001 384.044 104.23400000000001L374.37199999999996 99.64600000000002Q374.37199999999996 91.71000000000001 377.596 84.766Q380.82 77.822 387.299 73.54400000000001Q393.77799999999996 69.266 403.63599999999997 69.266Q411.51 69.266 416.46999999999997 71.93200000000002Q421.42999999999995 74.59800000000001 424.18899999999996 78.69000000000001Q426.948 82.78200000000001 428.126 87.215Q429.304 91.64800000000001 429.55199999999996 95.30600000000001Q429.79999999999995 98.964 429.79999999999995 100.638V138.21ZM366.93199999999996 138.21V71.25000000000001H381.936V93.446H384.044V138.21ZM441.45599999999996 138.21 441.58 48.93000000000001H458.692V103.49000000000001L481.38399999999996 71.25000000000001H502.216L478.036 104.73000000000002L503.828 138.21H481.88L458.692 105.97V138.21ZM535.572 140.07000000000002Q525.28 140.07000000000002 517.437 135.637Q509.594 131.204 505.16099999999994 123.423Q500.72799999999995 115.64200000000001 500.72799999999995 105.59800000000001Q500.72799999999995 94.62400000000001 505.068 86.50200000000001Q509.40799999999996 78.38000000000001 517.034 73.88500000000002Q524.66 69.39000000000001 534.5799999999999 69.39000000000001Q545.12 69.39000000000001 552.498 74.35000000000001Q559.876 79.31 563.41 88.30000000000001Q566.944 97.29 565.89 109.44200000000001H549.212V103.24200000000002Q549.212 93.012 545.957 88.517Q542.702 84.022 535.324 84.022Q526.706 84.022 522.645 89.261Q518.584 94.5 518.584 104.73000000000002Q518.584 114.09200000000001 522.645 119.20700000000001Q526.706 124.322 534.5799999999999 124.322Q539.54 124.322 543.074 122.152Q546.608 119.982 548.468 115.89000000000001L565.332 120.72600000000001Q561.55 129.90200000000002 553.3969999999999 134.98600000000002Q545.2439999999999 140.07000000000002 535.572 140.07000000000002ZM513.376 109.44200000000001V96.918H557.768V109.44200000000001ZM575.4999999999999 138.21V71.25000000000001H590.3799999999999V87.61800000000001L588.7679999999999 85.51Q590.0699999999999 82.03800000000001 592.24 79.186Q594.41 76.334 597.5719999999999 74.47400000000002Q599.9899999999999 72.986 602.8419999999999 72.149Q605.694 71.31200000000001 608.732 71.09500000000001Q611.77 70.87800000000001 614.808 71.25000000000001V86.99800000000002Q612.0179999999999 86.13000000000001 608.329 86.40900000000002Q604.64 86.68800000000002 601.664 88.114Q598.688 89.47800000000001 596.6419999999999 91.74100000000001Q594.5959999999999 94.004 593.5419999999999 97.07300000000001Q592.4879999999999 100.14200000000001 592.4879999999999 103.98600000000002V138.21ZM667.88 138.21V106.59Q667.88 104.296 667.6320000000001 100.73100000000001Q667.384 97.16600000000001 666.082 93.57000000000002Q664.78 89.97400000000002 661.835 87.55600000000001Q658.89 85.138 653.496 85.138Q651.326 85.138 648.846 85.82000000000001Q646.366 86.50200000000001 644.1959999999999 88.45500000000001Q642.026 90.40800000000002 640.631 94.19000000000001Q639.236 97.97200000000001 639.236 104.23400000000001L629.564 99.64600000000002Q629.564 91.71000000000001 632.788 84.766Q636.012 77.822 642.491 73.54400000000001Q648.97 69.266 658.828 69.266Q666.702 69.266 671.662 71.93200000000002Q676.622 74.59800000000001 679.381 78.69000000000001Q682.14 82.78200000000001 683.318 87.215Q684.496 91.64800000000001 684.7439999999999 95.30600000000001Q684.992 98.964 684.992 100.638V138.21ZM622.124 138.21V71.25000000000001H637.1279999999999V93.446H639.236V138.21ZM726.656 140.07000000000002Q716.364 140.07000000000002 708.521 135.637Q700.678 131.204 696.245 123.423Q691.812 115.64200000000001 691.812 105.59800000000001Q691.812 94.62400000000001 696.152 86.50200000000001Q700.492 78.38000000000001 708.1179999999999 73.88500000000002Q715.744 69.39000000000001 725.664 69.39000000000001Q736.204 69.39000000000001 743.582 74.35000000000001Q750.96 79.31 754.494 88.30000000000001Q758.028 97.29 756.9739999999999 109.44200000000001H740.2959999999999V103.24200000000002Q740.2959999999999 93.012 737.0409999999999 88.517Q733.786 84.022 726.408 84.022Q717.79 84.022 713.729 89.261Q709.668 94.5 709.668 104.73000000000002Q709.668 114.09200000000001 713.729 119.20700000000001Q717.79 124.322 725.664 124.322Q730.624 124.322 734.158 122.152Q737.692 119.982 739.552 115.89000000000001L756.4159999999999 120.72600000000001Q752.634 129.90200000000002 744.481 134.98600000000002Q736.328 140.07000000000002 726.656 140.07000000000002ZM704.4599999999999 109.44200000000001V96.918H748.852V109.44200000000001ZM767.824 138.21V47.07000000000001H784.688V138.21Z" fill="#0B1F3B"/></svg>